<svg width="18" height="18" viewBox="0 0 18 18" fill="none" xmlns="http://www.w3.org/2000/svg">
<path d="M4.44421 2.13338C4.44421 3.18268 3.68164 4.03328 2.42528 4.03328C1.24177 4.03328 0.482444 3.18268 0.482444 2.13338C0.477587 1.05945 1.26605 0.238403 2.47709 0.238403C3.68812 0.238403 4.41992 1.05945 4.44421 2.13338ZM0.57635 17.753V5.53252H4.32116V17.753H0.57635Z" fill="white"/>
<path d="M6.56458 9.43283C6.56458 7.90897 6.51439 6.64127 6.46582 5.5345H9.71844L9.89007 7.23406H9.96454C10.4502 6.43436 11.6645 5.26355 13.6883 5.26355C16.1525 5.26355 17.9998 6.93849 17.9998 10.5363V17.7615H14.2517V10.978C14.2517 9.40492 13.7094 8.32934 12.3542 8.32934C11.3197 8.32934 10.7044 9.05515 10.4324 9.75468C10.3366 10.0612 10.2949 10.3826 10.3094 10.7038V17.7517H6.56458V9.43283Z" fill="white"/>
</svg>
