<svg width="18" height="18" viewBox="0 0 18 18" fill="none" xmlns="http://www.w3.org/2000/svg">
<path fill-rule="evenodd" clip-rule="evenodd" d="M8.9811 0.241089C6.60159 0.241089 6.30525 0.251308 5.3695 0.295102C2.18709 0.441085 0.420704 2.20601 0.274722 5.38842C0.232387 6.32417 0.222168 6.62197 0.222168 9.00002C0.222168 11.3795 0.232387 11.6773 0.274722 12.6116C0.420704 15.7926 2.18709 17.5604 5.3695 17.7064C6.30525 17.7487 6.60159 17.759 8.9811 17.759C11.3606 17.759 11.6584 17.7487 12.5942 17.7064C15.7707 17.5604 17.5444 15.7955 17.6875 12.6116C17.7298 11.6773 17.74 11.3795 17.74 9.00002C17.74 6.62197 17.7298 6.32417 17.6875 5.38842C17.5444 2.21039 15.7766 0.439625 12.5942 0.295102C11.6584 0.251308 11.3606 0.241089 8.9811 0.241089ZM8.98106 1.82117C11.3197 1.82117 11.5971 1.82993 12.5211 1.87227C14.8963 1.9803 16.0028 3.10582 16.1123 5.46197C16.1532 6.38604 16.1619 6.66195 16.1619 9.00058C16.1619 11.3392 16.1532 11.6166 16.1123 12.5392C16.0028 14.8939 14.8977 16.0223 12.5211 16.1304C11.5971 16.1712 11.3212 16.1814 8.98106 16.1814C6.64243 16.1814 6.36506 16.1727 5.44245 16.1304C3.06294 16.0209 1.96078 14.891 1.85129 12.5392C1.81041 11.6166 1.80019 11.3392 1.80019 9.00058C1.80019 6.66195 1.81041 6.38458 1.85129 5.46197C1.95932 3.10436 3.06586 1.97884 5.44245 1.87081C6.36506 1.82847 6.64243 1.82117 8.98106 1.82117ZM4.48157 9.00101C4.48157 6.51639 6.49612 4.5033 8.97928 4.5033C11.4624 4.5033 13.477 6.51785 13.477 9.00101C13.477 11.4856 11.4624 13.4987 8.97928 13.4987C6.49612 13.4987 4.48157 11.4856 4.48157 9.00101ZM8.97935 11.9204C7.36625 11.9204 6.05971 10.6138 6.05971 9.00071C6.05971 7.38906 7.36625 6.08106 8.97935 6.08106C10.591 6.08106 11.9005 7.3876 11.9005 9.00071C11.9005 10.6138 10.591 11.9204 8.97935 11.9204ZM12.6033 4.32697C12.6033 3.74596 13.0749 3.2759 13.6544 3.2759C14.2369 3.2759 14.7069 3.74596 14.7069 4.32697C14.7069 4.90798 14.2354 5.37804 13.6544 5.37804C13.0734 5.37804 12.6033 4.90652 12.6033 4.32697Z" fill="white"/>
</svg>
