<svg width="19" height="16" viewBox="0 0 19 16" fill="none" xmlns="http://www.w3.org/2000/svg">
<path d="M18.4793 2.56732C17.8355 2.85345 17.1421 3.04614 16.4151 3.13373C17.1582 2.68849 17.726 1.98485 17.9961 1.14545C17.3012 1.55712 16.5319 1.85639 15.7129 2.01697C15.0589 1.31771 14.1232 0.881226 13.0911 0.881226C10.77 0.881226 9.0649 3.04614 9.58898 5.29427C6.60364 5.14391 3.95406 3.71328 2.18184 1.53961C1.24025 3.15417 1.69426 5.26799 3.29422 6.33804C2.70591 6.31906 2.15264 6.15702 1.66798 5.88842C1.62856 7.55261 2.8227 9.11024 4.55113 9.45768C4.04603 9.5949 3.4913 9.62702 2.92781 9.51899C3.38473 10.9467 4.71463 11.9846 6.2854 12.0138C4.77156 13.1992 2.86941 13.7291 0.961426 13.5043C2.55263 14.5247 4.44018 15.1189 6.46934 15.1189C13.1436 15.1189 16.9129 9.4825 16.6852 4.42713C17.3888 3.92204 17.9976 3.28847 18.4793 2.56732Z" fill="white"/>
</svg>
