<svg width="40" height="40" viewBox="0 0 40 40" fill="none" xmlns="http://www.w3.org/2000/svg">
<mask id="mask0_12_136" style="mask-type:alpha" maskUnits="userSpaceOnUse" x="0" y="0" width="40" height="40">
<rect width="40" height="40" fill="#D9D9D9"/>
</mask>
<g mask="url(#mask0_12_136)">
<path d="M12.0583 35.9123C11.2933 35.9123 10.645 35.6435 10.1135 35.106C9.58208 34.5686 9.31634 33.9158 9.31634 33.1479C9.31634 32.3799 9.58399 31.7292 10.1193 31.1956C10.6546 30.662 11.3047 30.3952 12.0696 30.3952C12.8345 30.3952 13.4845 30.664 14.0198 31.2015C14.555 31.739 14.8227 32.3917 14.8227 33.1597C14.8227 33.9276 14.5539 34.5784 14.0165 35.112C13.479 35.6455 12.8262 35.9123 12.0583 35.9123ZM28.2121 35.9123C27.4471 35.9123 26.7988 35.6435 26.2673 35.106C25.7359 34.5686 25.4701 33.9158 25.4701 33.1479C25.4701 32.3799 25.7378 31.7292 26.2731 31.1956C26.8084 30.662 27.4585 30.3952 28.2234 30.3952C28.9883 30.3952 29.6384 30.664 30.1736 31.2015C30.7089 31.739 30.9765 32.3917 30.9765 33.1597C30.9765 33.9276 30.7078 34.5784 30.1703 35.112C29.6328 35.6455 28.98 35.9123 28.2121 35.9123ZM9.80559 9.16017L14.312 18.5705H25.8323C25.9285 18.5705 26.0157 18.5465 26.094 18.4984C26.1724 18.4503 26.2347 18.3835 26.281 18.298L31.062 9.60892C31.1261 9.49139 31.1315 9.38722 31.078 9.29642C31.0246 9.20558 30.9338 9.16017 30.8056 9.16017H9.80559ZM8.76501 7.06621H31.8901C32.5713 7.06621 33.0865 7.35912 33.4356 7.94496C33.7848 8.53079 33.7956 9.12606 33.4679 9.73075L28.2731 19.1418C27.997 19.6092 27.6392 19.9798 27.1998 20.2537C26.7603 20.5275 26.2835 20.6644 25.7693 20.6644H13.5L11.3227 24.6751C11.2443 24.8033 11.2435 24.9422 11.32 25.0918C11.3966 25.2414 11.515 25.3162 11.6753 25.3162H30.9765V27.4102H11.8612C10.7914 27.4102 10.0081 27.009 9.5113 26.2067C9.01452 25.4043 9.01079 24.5519 9.50009 23.6495L12.0813 18.9679L5.85909 5.84396H2.72021V3.75H7.1988L8.76501 7.06621Z" fill="#161A31"/>
</g>
</svg>
