<svg width="59" height="32" viewBox="0 0 59 32" fill="none" xmlns="http://www.w3.org/2000/svg">
<g clip-path="url(#clip0_7_1547)">
<path d="M54.9943 21.215H55.0857C57.6849 21.215 59.133 24.2312 57.4709 26.2152C54.5143 29.7476 50.0618 32 45.0878 32C38.7238 32 33.2096 28.3107 30.5958 22.9719C27.8637 28.5502 21.9672 32.3283 15.2416 31.9773C7.07005 31.552 0.45673 24.9868 0.0224903 16.8692C-0.469925 7.65523 6.93292 0 16.1018 0C19.3576 0 22.3931 0.966193 24.93 2.62813C25.8691 3.24129 26.7396 3.94942 27.5271 4.73806C28.514 5.7249 28.5265 7.31458 27.5354 8.29729L24.6702 11.1422L19.7918 15.9917C18.6449 17.1314 16.7833 17.1314 15.6364 15.9917C14.4895 14.8521 14.4895 13.0023 15.6364 11.8627L20.3694 7.15974C18.9545 6.48258 17.3526 6.12955 15.6634 6.20387C10.5834 6.42271 6.45297 10.5352 6.24105 15.583C6.00627 21.1799 10.5211 25.8065 16.1018 25.8065C20.4463 25.8065 25.1751 22.8253 26.4903 18.944C26.4903 18.944 29.3991 11.7182 30.5938 9.02813C31.1277 7.82452 31.8944 6.74477 32.738 5.74555C35.6924 2.23587 40.1304 0 45.0857 0C50.041 0 54.5787 2.28542 57.5353 5.86323C59.1933 7.86994 57.7348 10.8924 55.1231 10.8924C54.1964 10.8924 53.303 10.4981 52.715 9.78581C50.7662 7.42606 47.7306 5.98297 44.3772 6.21832C39.5299 6.5569 35.6052 10.4382 35.2457 15.2526C34.8157 20.9961 39.397 25.8065 45.0878 25.8065C48.0984 25.8065 50.8015 24.4583 52.6111 22.3381C53.2095 21.6382 54.0718 21.215 54.9943 21.215Z" fill="#161A31"/>
</g>
<defs>
<clipPath id="clip0_7_1547">
<rect width="58.24" height="32" fill="white"/>
</clipPath>
</defs>
</svg>
