<svg width="95" height="93" viewBox="0 0 95 93" fill="none" xmlns="http://www.w3.org/2000/svg">
<circle cx="41.0992" cy="50.9311" r="40.4998" transform="rotate(89.1455 41.0992 50.9311)" fill="url(#paint0_linear_1927_11544)"/>
<circle cx="63.2756" cy="31.8211" r="29.0589" transform="rotate(89.1455 63.2756 31.8211)" fill="url(#paint1_linear_1927_11544)" stroke="white" stroke-width="3"/>
<path d="M62.5469 41.432C61.1549 41.432 59.9069 41.204 58.8029 40.748C57.7229 40.268 56.7989 39.608 56.0309 38.768C55.2869 37.904 54.7109 36.872 54.3029 35.672C53.8949 34.448 53.6909 33.08 53.6909 31.568C53.6909 30.08 53.8829 28.736 54.2669 27.536C54.6749 26.336 55.2509 25.316 55.9949 24.476C56.7389 23.612 57.6509 22.952 58.7309 22.496C59.8109 22.016 61.0349 21.776 62.4029 21.776C63.8669 21.776 65.1389 22.028 66.2189 22.532C67.2989 23.036 68.1869 23.72 68.8829 24.584C69.5789 25.448 70.0949 26.456 70.4309 27.608C70.7909 28.736 70.9709 29.948 70.9709 31.244V32.756H58.4789V33.224C58.4789 34.592 58.8629 35.696 59.6309 36.536C60.3989 37.352 61.5389 37.76 63.0509 37.76C64.2029 37.76 65.1389 37.52 65.8589 37.04C66.6029 36.56 67.2629 35.948 67.8389 35.204L70.3229 37.976C69.5549 39.056 68.4989 39.908 67.1549 40.532C65.8349 41.132 64.2989 41.432 62.5469 41.432ZM62.4749 25.232C61.2509 25.232 60.2789 25.64 59.5589 26.456C58.8389 27.272 58.4789 28.328 58.4789 29.624V29.912H66.1829V29.588C66.1829 28.292 65.8589 27.248 65.2109 26.456C64.5869 25.64 63.6749 25.232 62.4749 25.232Z" fill="white"/>
<defs>
<linearGradient id="paint0_linear_1927_11544" x1="10.5403" y1="19.6358" x2="68.2609" y2="78.4384" gradientUnits="userSpaceOnUse">
<stop stop-color="#FFB859"/>
<stop offset="1" stop-color="#F88B3C"/>
</linearGradient>
<linearGradient id="paint1_linear_1927_11544" x1="38.9757" y1="10.4667" x2="78.7391" y2="53.5437" gradientUnits="userSpaceOnUse">
<stop stop-color="#2A346F"/>
<stop offset="1" stop-color="#161A31"/>
</linearGradient>
</defs>
</svg>
