<svg width="95" height="92" viewBox="0 0 95 92" fill="none" xmlns="http://www.w3.org/2000/svg">
<path fill-rule="evenodd" clip-rule="evenodd" d="M32.7201 31.4669C32.9718 48.3423 46.856 61.8184 63.7313 61.5667C70.2679 61.4692 76.2945 59.3264 81.2108 55.7566C78.5026 75.2073 61.9487 90.3145 41.7032 90.6164C19.3383 90.95 0.937518 73.09 0.603962 50.7251C0.270406 28.3602 18.1303 9.95949 40.4953 9.62593C40.8142 9.62118 41.1322 9.62012 41.4495 9.62272C35.9417 15.2435 32.5935 22.9767 32.7201 31.4669Z" fill="url(#paint0_linear_1927_11548)"/>
<path d="M62.5469 40.6221C61.1549 40.6221 59.9069 40.3941 58.8029 39.9381C57.7229 39.4581 56.7989 38.7981 56.0309 37.9581C55.2869 37.0941 54.7109 36.0621 54.3029 34.8621C53.8949 33.6381 53.6909 32.2701 53.6909 30.7581C53.6909 29.2701 53.8829 27.9261 54.2669 26.7261C54.6749 25.5261 55.2509 24.5061 55.9949 23.6661C56.7389 22.8021 57.6509 22.1421 58.7309 21.6861C59.8109 21.2061 61.0349 20.9661 62.4029 20.9661C63.8669 20.9661 65.1389 21.2181 66.2189 21.7221C67.2989 22.2261 68.1869 22.9101 68.8829 23.7741C69.5789 24.6381 70.0949 25.6461 70.4309 26.7981C70.7909 27.9261 70.9709 29.1381 70.9709 30.4341V31.9461H58.4789V32.4141C58.4789 33.7821 58.8629 34.8861 59.6309 35.7261C60.3989 36.5421 61.5389 36.9501 63.0509 36.9501C64.2029 36.9501 65.1389 36.7101 65.8589 36.2301C66.6029 35.7501 67.2629 35.1381 67.8389 34.3941L70.3229 37.1661C69.5549 38.2461 68.4989 39.0981 67.1549 39.7221C65.8349 40.3221 64.2989 40.6221 62.5469 40.6221ZM62.4749 24.4221C61.2509 24.4221 60.2789 24.8301 59.5589 25.6461C58.8389 26.4621 58.4789 27.5181 58.4789 28.8141V29.1021H66.1829V28.7781C66.1829 27.4821 65.8589 26.4381 65.2109 25.6461C64.5869 24.8301 63.6749 24.4221 62.4749 24.4221Z" fill="white"/>
<defs>
<linearGradient id="paint0_linear_1927_11548" x1="71.9353" y1="19.099" x2="14" y2="77.6901" gradientUnits="userSpaceOnUse">
<stop stop-color="#FFB859"/>
<stop offset="1" stop-color="#F88B3C"/>
</linearGradient>
</defs>
</svg>
