<svg width="174" height="32" viewBox="0 0 174 32" fill="none" xmlns="http://www.w3.org/2000/svg">
<g clip-path="url(#clip0_7_1550)">
<path d="M54.9943 21.215H55.0857C57.6849 21.215 59.133 24.2312 57.4709 26.2152C54.5143 29.7476 50.0618 32 45.0878 32C38.7238 32 33.2096 28.3107 30.5958 22.9719C27.8637 28.5502 21.9672 32.3283 15.2416 31.9773C7.07005 31.552 0.456729 24.9868 0.0224903 16.8692C-0.469925 7.65523 6.93292 0 16.1018 0C19.3576 0 22.3931 0.966193 24.93 2.62813C25.8691 3.24129 26.7396 3.94942 27.5271 4.73806C28.514 5.7249 28.5265 7.31458 27.5354 8.29729L24.6702 11.1422L19.7918 15.9917C18.6449 17.1314 16.7833 17.1314 15.6364 15.9917C14.4895 14.8521 14.4895 13.0023 15.6364 11.8627L20.3694 7.15974C18.9545 6.48258 17.3526 6.12955 15.6634 6.20387C10.5834 6.42271 6.45297 10.5352 6.24105 15.583C6.00627 21.1799 10.5211 25.8065 16.1018 25.8065C20.4463 25.8065 25.1751 22.8253 26.4903 18.944C26.4903 18.944 29.3991 11.7182 30.5938 9.02813C31.1277 7.82452 31.8944 6.74477 32.738 5.74555C35.6924 2.23587 40.1304 0 45.0857 0C50.041 0 54.5787 2.28542 57.5353 5.86323C59.1933 7.86994 57.7348 10.8924 55.1231 10.8924C54.1964 10.8924 53.303 10.4981 52.715 9.78581C50.7662 7.42606 47.7306 5.98297 44.3772 6.21832C39.53 6.5569 35.6052 10.4382 35.2457 15.2526C34.8156 20.9961 39.397 25.8065 45.0878 25.8065C48.0984 25.8065 50.8015 24.4583 52.6111 22.3381C53.2095 21.6382 54.0718 21.215 54.9943 21.215Z" fill="#161A31"/>
</g>
<path d="M67.392 23V11.08H75.312V13H69.568V16.056H74.992V17.976H69.568V21.08H75.312V23H67.392ZM82.5076 23.192C81.6543 23.192 80.8649 23.0373 80.1396 22.728C79.4249 22.4187 78.7956 21.9867 78.2516 21.432C77.7183 20.8773 77.3023 20.2267 77.0036 19.48C76.7049 18.7333 76.5556 17.9173 76.5556 17.032C76.5556 16.1467 76.6996 15.3307 76.9876 14.584C77.2863 13.8267 77.7023 13.176 78.2356 12.632C78.7796 12.0773 79.4143 11.6507 80.1396 11.352C80.8649 11.0427 81.6543 10.888 82.5076 10.888C83.3609 10.888 84.1236 11.032 84.7956 11.32C85.4783 11.608 86.0543 11.992 86.5236 12.472C86.9929 12.9413 87.3289 13.4587 87.5316 14.024L85.5796 14.936C85.3556 14.3387 84.9769 13.848 84.4436 13.464C83.9103 13.0693 83.2649 12.872 82.5076 12.872C81.7609 12.872 81.0996 13.048 80.5236 13.4C79.9583 13.752 79.5156 14.2373 79.1956 14.856C78.8863 15.4747 78.7316 16.2 78.7316 17.032C78.7316 17.864 78.8863 18.5947 79.1956 19.224C79.5156 19.8427 79.9583 20.328 80.5236 20.68C81.0996 21.032 81.7609 21.208 82.5076 21.208C83.2649 21.208 83.9103 21.016 84.4436 20.632C84.9769 20.2373 85.3556 19.7413 85.5796 19.144L87.5316 20.056C87.3289 20.6213 86.9929 21.144 86.5236 21.624C86.0543 22.0933 85.4783 22.472 84.7956 22.76C84.1236 23.048 83.3609 23.192 82.5076 23.192ZM95.1702 23.192C94.2956 23.192 93.4796 23.0373 92.7222 22.728C91.9649 22.4187 91.3036 21.9867 90.7382 21.432C90.1729 20.8773 89.7302 20.2267 89.4102 19.48C89.1009 18.7227 88.9462 17.9067 88.9462 17.032C88.9462 16.1467 89.1009 15.3307 89.4102 14.584C89.7196 13.8373 90.1569 13.1867 90.7222 12.632C91.2876 12.0773 91.9489 11.6507 92.7062 11.352C93.4636 11.0427 94.2849 10.888 95.1702 10.888C96.0556 10.888 96.8769 11.0427 97.6342 11.352C98.3916 11.6613 99.0529 12.0933 99.6182 12.648C100.184 13.192 100.621 13.8373 100.93 14.584C101.25 15.3307 101.41 16.1467 101.41 17.032C101.41 17.9067 101.25 18.7227 100.93 19.48C100.61 20.2267 100.168 20.8773 99.6022 21.432C99.0369 21.9867 98.3756 22.4187 97.6182 22.728C96.8716 23.0373 96.0556 23.192 95.1702 23.192ZM95.1702 21.208C95.7569 21.208 96.2956 21.1067 96.7862 20.904C97.2769 20.6907 97.7036 20.3973 98.0662 20.024C98.4396 19.6507 98.7222 19.208 98.9142 18.696C99.1169 18.184 99.2182 17.6293 99.2182 17.032C99.2182 16.4347 99.1169 15.8853 98.9142 15.384C98.7222 14.872 98.4396 14.4293 98.0662 14.056C97.7036 13.672 97.2769 13.3787 96.7862 13.176C96.2956 12.9733 95.7569 12.872 95.1702 12.872C94.5942 12.872 94.0609 12.9733 93.5702 13.176C93.0796 13.3787 92.6476 13.672 92.2742 14.056C91.9116 14.4293 91.6289 14.872 91.4262 15.384C91.2236 15.8853 91.1222 16.4347 91.1222 17.032C91.1222 17.6293 91.2236 18.184 91.4262 18.696C91.6289 19.208 91.9116 19.6507 92.2742 20.024C92.6476 20.3973 93.0796 20.6907 93.5702 20.904C94.0609 21.1067 94.5942 21.208 95.1702 21.208ZM103.345 23V11.08H105.425L109.889 17.144H108.897L113.265 11.08H115.345V23H113.153V13.56L114.001 13.768L109.473 19.8H109.217L104.801 13.768L105.521 13.56V23H103.345ZM117.626 23V11.08H119.706L124.17 17.144H123.178L127.546 11.08H129.626V23H127.434V13.56L128.282 13.768L123.754 19.8H123.498L119.082 13.768L119.802 13.56V23H117.626ZM131.908 23V11.08H139.828V13H134.084V16.056H139.508V17.976H134.084V21.08H139.828V23H131.908ZM141.423 23V11.08H145.855C146.666 11.08 147.381 11.2293 147.999 11.528C148.629 11.816 149.119 12.2427 149.471 12.808C149.823 13.3627 149.999 14.04 149.999 14.84C149.999 15.6613 149.802 16.36 149.407 16.936C149.023 17.512 148.501 17.9387 147.839 18.216L150.575 23H148.111L145.183 17.768L146.591 18.6H143.599V23H141.423ZM143.599 16.68H145.887C146.282 16.68 146.623 16.6053 146.911 16.456C147.199 16.296 147.423 16.0773 147.583 15.8C147.743 15.5227 147.823 15.2027 147.823 14.84C147.823 14.4667 147.743 14.1467 147.583 13.88C147.423 13.6027 147.199 13.3893 146.911 13.24C146.623 13.08 146.282 13 145.887 13H143.599V16.68ZM157.601 23.192C156.748 23.192 155.959 23.0373 155.233 22.728C154.519 22.4187 153.889 21.9867 153.345 21.432C152.812 20.8773 152.396 20.2267 152.097 19.48C151.799 18.7333 151.649 17.9173 151.649 17.032C151.649 16.1467 151.793 15.3307 152.081 14.584C152.38 13.8267 152.796 13.176 153.329 12.632C153.873 12.0773 154.508 11.6507 155.233 11.352C155.959 11.0427 156.748 10.888 157.601 10.888C158.455 10.888 159.217 11.032 159.889 11.32C160.572 11.608 161.148 11.992 161.617 12.472C162.087 12.9413 162.423 13.4587 162.625 14.024L160.673 14.936C160.449 14.3387 160.071 13.848 159.537 13.464C159.004 13.0693 158.359 12.872 157.601 12.872C156.855 12.872 156.193 13.048 155.617 13.4C155.052 13.752 154.609 14.2373 154.289 14.856C153.98 15.4747 153.825 16.2 153.825 17.032C153.825 17.864 153.98 18.5947 154.289 19.224C154.609 19.8427 155.052 20.328 155.617 20.68C156.193 21.032 156.855 21.208 157.601 21.208C158.359 21.208 159.004 21.016 159.537 20.632C160.071 20.2373 160.449 19.7413 160.673 19.144L162.625 20.056C162.423 20.6213 162.087 21.144 161.617 21.624C161.148 22.0933 160.572 22.472 159.889 22.76C159.217 23.048 158.455 23.192 157.601 23.192ZM164.392 23V11.08H172.312V13H166.568V16.056H171.992V17.976H166.568V21.08H172.312V23H164.392Z" fill="#161A31"/>
<defs>
<clipPath id="clip0_7_1550">
<rect width="58.24" height="32" fill="white"/>
</clipPath>
</defs>
</svg>
